<?xml version="1.0" standalone="no"?>
<!DOCTYPE svg PUBLIC "-//W3C//DTD SVG 20010904//EN"
 "http://www.w3.org/TR/2001/REC-SVG-20010904/DTD/svg10.dtd">
<svg version="1.0" xmlns="http://www.w3.org/2000/svg"
 width="128.000000pt" height="128.000000pt" viewBox="0 0 128.000000 128.000000"
 preserveAspectRatio="xMidYMid meet">

<g transform="translate(0.000000,128.000000) scale(0.100000,-0.100000)"
fill="#000000" stroke="none">
<path d="M606 1264 c-9 -9 -16 -32 -16 -54 0 -38 -2 -40 -42 -51 -108 -28
-199 -105 -246 -207 -24 -51 -27 -73 -33 -217 -9 -204 -22 -243 -121 -352 -56
-62 -51 -125 12 -158 43 -22 917 -22 960 0 63 33 68 96 12 158 -99 109 -112
148 -121 352 -6 144 -9 166 -33 217 -47 102 -138 179 -245 207 -41 11 -43 13
-43 51 0 42 -20 70 -50 70 -10 0 -26 -7 -34 -16z"/>
<path d="M450 142 c0 -31 55 -97 96 -118 51 -25 137 -25 188 0 41 21 96 87 96
118 0 17 -12 18 -190 18 -178 0 -190 -1 -190 -18z"/>
</g>
</svg>
