<?xml version="1.0" standalone="no"?>
<!DOCTYPE svg PUBLIC "-//W3C//DTD SVG 20010904//EN"
 "http://www.w3.org/TR/2001/REC-SVG-20010904/DTD/svg10.dtd">
<svg version="1.0" xmlns="http://www.w3.org/2000/svg"
 width="128.000000pt" height="128.000000pt" viewBox="0 0 128.000000 128.000000"
 preserveAspectRatio="xMidYMid meet">

<g transform="translate(0.000000,128.000000) scale(0.100000,-0.100000)"
fill="#000000" stroke="none">
<path d="M573 1208 c-191 -165 -564 -515 -569 -534 -13 -51 31 -84 112 -84
l44 0 0 -268 c0 -195 3 -271 12 -280 8 -8 63 -12 179 -12 139 0 170 3 183 16
13 13 16 44 16 180 l0 164 90 0 90 0 0 -164 c0 -136 3 -167 16 -180 13 -13 44
-16 183 -16 116 0 171 4 179 12 9 9 12 85 12 280 l0 268 44 0 c81 0 125 33
112 84 -3 13 -121 128 -263 258 -331 301 -351 318 -373 318 -10 0 -40 -19 -67
-42z"/>
<path d="M870 1167 c0 -2 63 -61 140 -131 l140 -127 0 115 c0 63 -3 121 -6
130 -5 14 -27 16 -140 16 -74 0 -134 -1 -134 -3z"/>
</g>
</svg>
