<?xml version="1.0" standalone="no"?>
<!DOCTYPE svg PUBLIC "-//W3C//DTD SVG 20010904//EN"
 "http://www.w3.org/TR/2001/REC-SVG-20010904/DTD/svg10.dtd">
<svg version="1.0" xmlns="http://www.w3.org/2000/svg"
 width="128.000000pt" height="128.000000pt" viewBox="0 0 128.000000 128.000000"
 preserveAspectRatio="xMidYMid meet">

<g transform="translate(0.000000,128.000000) scale(0.100000,-0.100000)"
fill="#ffffff" stroke="none">
<path d="M466 1110 c-63 -16 -153 -70 -197 -117 -22 -24 -55 -74 -72 -111 -29
-61 -32 -76 -32 -163 0 -90 2 -99 37 -171 45 -91 103 -147 196 -191 61 -29 76
-32 162 -32 83 0 103 4 158 29 l63 29 113 -111 c96 -96 118 -112 145 -112 43
0 81 38 81 81 0 27 -16 49 -112 145 l-111 113 29 63 c25 55 29 75 29 159 0 90
-2 99 -37 171 -68 136 -188 217 -336 224 -42 2 -94 -1 -116 -6z m184 -126 c76
-23 153 -100 176 -179 63 -219 -132 -414 -351 -351 -79 23 -156 100 -179 176
-34 113 -11 206 68 286 80 79 173 102 286 68z"/>
</g>
</svg>
