<?xml version="1.0" standalone="no"?>
<!DOCTYPE svg PUBLIC "-//W3C//DTD SVG 20010904//EN"
 "http://www.w3.org/TR/2001/REC-SVG-20010904/DTD/svg10.dtd">
<svg version="1.0" xmlns="http://www.w3.org/2000/svg"
 width="496.000000pt" height="503.000000pt" viewBox="0 0 496.000000 503.000000"
 preserveAspectRatio="xMidYMid meet">

<g transform="translate(0.000000,503.000000) scale(0.100000,-0.100000)"
fill="#000000" stroke="none">
<path d="M1552 4649 c-30 -5 -96 -23 -147 -40 -410 -136 -737 -573 -974 -1303
-32 -99 -62 -195 -65 -212 -7 -31 -9 -32 -159 -74 -84 -23 -158 -48 -165 -54
-13 -13 -16 -2 203 -756 42 -146 106 -366 141 -490 36 -124 81 -277 99 -340
18 -63 63 -218 100 -345 37 -126 98 -338 136 -470 38 -132 88 -305 111 -385
22 -80 46 -151 52 -157 12 -13 33 -7 926 250 162 47 507 146 765 221 259 74
628 181 820 236 193 56 561 162 820 236 415 120 485 143 485 164 0 3 -18 64
-39 135 -27 94 -42 129 -52 127 -8 -2 -39 -8 -69 -13 -76 -12 -3570 -12 -3679
1 -196 22 -354 152 -411 338 -18 57 -20 93 -20 321 0 279 6 321 58 411 37 64
127 156 186 189 114 65 -12 61 1863 61 1257 0 1703 3 1703 11 0 9 -222 782
-365 1269 -17 57 -27 76 -42 78 -10 2 -122 -27 -248 -64 -427 -123 -404 -118
-429 -96 -11 10 -64 57 -116 103 -52 46 -134 115 -182 153 -49 38 -88 73 -88
77 0 12 129 85 208 119 98 42 214 70 317 77 317 21 646 -179 941 -573 41 -54
72 -105 69 -112 -4 -11 49 -321 149 -862 l32 -175 51 -7 c173 -25 326 -152
390 -323 l22 -60 0 713 1 712 -210 0 -209 0 -50 73 c-73 109 -195 263 -270
342 -276 290 -532 428 -822 442 -244 12 -463 -53 -702 -209 l-77 -51 -83 51
c-186 114 -363 192 -542 238 -79 20 -130 27 -240 29 -77 2 -164 0 -193 -6z
m247 -169 c175 -18 358 -82 553 -192 l107 -61 -147 -147 c-81 -80 -183 -190
-227 -243 l-80 -97 -417 0 -418 0 0 -195 0 -195 23 0 c12 0 80 11 152 25 132
26 180 31 135 14 -75 -27 -920 -265 -920 -259 0 21 88 278 136 398 235 586
547 908 919 951 39 5 73 9 76 10 4 0 52 -4 108 -9z m844 -382 c116 -80 331
-268 320 -278 -4 -5 -65 -24 -134 -44 l-127 -36 -231 0 c-161 0 -231 3 -231
11 0 11 354 369 366 369 3 0 20 -10 37 -22z"/>
<path d="M2690 2150 l0 -330 69 0 70 0 3 149 c3 141 4 151 26 174 47 50 121
42 141 -15 6 -17 11 -93 11 -169 l0 -139 71 0 71 0 -4 183 c-3 149 -7 188 -21
215 -25 45 -72 72 -129 72 -60 0 -95 -14 -135 -53 l-33 -31 0 137 0 137 -70 0
-70 0 0 -330z"/>
<path d="M1110 2395 l0 -65 95 0 95 0 0 -255 0 -256 78 3 77 3 2 250 2 250 96
3 96 3 -3 62 -3 62 -267 3 -268 2 0 -65z"/>
<path d="M2365 2290 c-94 -15 -145 -65 -145 -144 0 -85 37 -116 164 -136 38
-6 84 -17 102 -25 66 -27 29 -85 -54 -85 -54 0 -94 20 -110 55 -8 18 -18 25
-28 21 -9 -3 -33 -6 -55 -6 -36 0 -39 -2 -39 -27 0 -38 46 -92 98 -116 33 -14
67 -20 121 -19 92 0 149 20 191 68 24 28 30 44 30 83 0 81 -49 119 -179 142
-121 22 -151 44 -111 83 32 33 97 27 130 -12 23 -28 28 -29 73 -22 26 4 50 10
54 14 4 4 -2 24 -14 44 -36 63 -131 97 -228 82z"/>
<path d="M3385 2291 c-42 -11 -107 -45 -127 -68 -61 -67 -76 -199 -34 -290 81
-174 367 -175 456 -2 63 122 11 289 -107 341 -47 21 -144 31 -188 19z m151
-145 c71 -82 23 -226 -76 -226 -59 0 -95 22 -114 70 -20 51 -20 69 0 120 21
53 55 71 118 66 39 -3 55 -9 72 -30z"/>
<path d="M3974 2271 c-17 -10 -40 -31 -51 -45 -12 -14 -23 -26 -26 -26 -2 0
-7 18 -11 40 l-6 40 -60 0 -60 0 0 -325 0 -325 70 0 70 0 0 136 0 136 26 -32
c37 -43 75 -60 135 -60 70 0 129 35 166 98 25 43 28 56 28 143 0 89 -2 99 -30
144 -54 87 -174 123 -251 76z m98 -113 c42 -21 62 -116 36 -172 -23 -51 -104
-75 -156 -47 -30 16 -55 68 -55 112 0 97 90 151 175 107z"/>
<path d="M1690 2103 c0 -207 11 -247 73 -276 73 -35 180 -12 225 50 l20 27 7
-42 7 -42 59 0 59 0 0 230 0 230 -70 0 -70 0 0 -149 c0 -141 -1 -151 -22 -176
-14 -15 -38 -28 -60 -32 -30 -4 -41 -1 -62 20 -26 26 -26 28 -26 182 l0 155
-70 0 -70 0 0 -177z"/>
<path d="M4927 1708 c-21 -69 -86 -168 -136 -208 -20 -16 -46 -38 -57 -47
l-22 -18 52 -282 c45 -246 50 -283 37 -287 -18 -5 -129 -26 -441 -81 -113 -20
-236 -42 -275 -50 -38 -7 -142 -26 -230 -42 l-160 -28 624 -3 c343 -1 626 -1
628 1 2 2 2 251 1 553 -3 542 -3 548 -21 492z"/>
</g>
</svg>
